<svg width="92" height="32" viewBox="0 0 92 32" fill="none" xmlns="http://www.w3.org/2000/svg">
<path d="M33.0848 26.565V12.4647H37.954C39.6407 12.4647 40.92 12.794 41.792 13.4526C42.6641 14.1046 43.1 15.0634 43.1 16.3287C43.1 17.0196 42.925 17.6297 42.575 18.1591C42.2249 18.682 41.738 19.0662 41.1142 19.3115C41.8271 19.4923 42.3872 19.857 42.7946 20.4058C43.2082 20.9546 43.4151 21.626 43.4151 22.4201C43.4151 23.7759 42.9886 24.8024 42.1358 25.4997C41.2829 26.197 40.0672 26.5521 38.4886 26.565H33.0848ZM35.949 20.4252V24.2311H38.4027C39.0774 24.2311 39.6025 24.0697 39.978 23.7469C40.3599 23.4176 40.5509 22.9657 40.5509 22.3911C40.5509 21.0998 39.8921 20.4445 38.5746 20.4252H35.949ZM35.949 18.3721H38.0686C39.5134 18.3463 40.2358 17.762 40.2358 16.6193C40.2358 15.9801 40.0513 15.5217 39.6821 15.2441C39.3193 14.9601 38.7433 14.818 37.954 14.818H35.949V18.3721ZM53.9364 20.4542H48.437V24.2311H54.8912V26.565H45.5728V12.4647H54.8722V14.818H48.437V18.1784H53.9364V20.4542ZM61.7174 21.4033H59.4358V26.565H56.5716V12.4647H61.7364C63.3789 12.4647 64.6453 12.836 65.5364 13.5784C66.4275 14.3209 66.8733 15.37 66.8733 16.7258C66.8733 17.6878 66.666 18.4916 66.2526 19.1372C65.8453 19.7763 65.2247 20.2864 64.3906 20.6673L67.3984 26.4294V26.565H64.3241L61.7174 21.4033ZM59.4358 19.05H61.7459C62.4655 19.05 63.0224 18.866 63.4169 18.498C63.8113 18.1236 64.009 17.6103 64.009 16.9582C64.009 16.2933 63.8213 15.7703 63.4453 15.3894C63.0766 15.0085 62.5068 14.818 61.7364 14.818H59.4358V19.05ZM74.2057 21.4033H71.9236V26.565H69.0593V12.4647H74.2247C75.8666 12.4647 77.1336 12.836 78.0247 13.5784C78.9157 14.3209 79.361 15.37 79.361 16.7258C79.361 17.6878 79.1543 18.4916 78.7403 19.1372C78.3331 19.7763 77.7124 20.2864 76.8789 20.6673L79.8861 26.4294V26.565H76.8118L74.2057 21.4033ZM71.9236 19.05H74.2342C74.9532 19.05 75.5101 18.866 75.9051 18.498C76.2995 18.1236 76.4967 17.6103 76.4967 16.9582C76.4967 16.2933 76.309 15.7703 75.9336 15.3894C75.5643 15.0085 74.9945 14.818 74.2247 14.818H71.9236V19.05ZM85.8822 18.8176L88.775 12.4647H91.9062L87.3426 21.4517V26.565H84.4308V21.4517L79.8671 12.4647H83.0079L85.8822 18.8176Z" fill="#212121"/>
<path d="M10.987 31.665C4.92849 31.665 0 26.7069 0 20.6132C0 14.5194 4.92899 9.5613 10.987 9.5613C17.045 9.5613 21.974 14.5194 21.974 20.6132C21.974 26.7069 17.0459 31.665 10.987 31.665ZM10.987 10.6169C5.50765 10.6169 1.04938 15.1005 1.04938 20.6127C1.04938 26.1249 5.50765 30.6084 10.987 30.6084C16.4663 30.6084 20.9251 26.1238 20.9251 20.6117C20.9251 15.0995 16.4673 10.6169 10.987 10.6169Z" fill="#2196F3"/>
<path d="M18.9602 21.1034C18.6184 19.8292 15.4854 19.6917 13.6205 20.1588C12.6439 20.4044 11.6458 20.7237 10.6165 20.9074C11.3699 21.5798 12.1791 22.2159 13.3403 22.3741C16.2213 22.7651 18.0114 21.8559 18.9602 21.1034Z" fill="#2196F3"/>
<path d="M13.3401 22.3741C12.1765 22.2159 11.3698 21.5798 10.6163 20.9074C9.45025 19.8666 8.4131 18.7388 6.37735 19.1632C3.14081 19.8381 2.715 23.689 5.21416 26.1637C6.28718 27.294 7.66467 28.0849 9.17791 28.4395C10.6911 28.7941 12.2743 28.6969 13.7334 28.1599C15.1925 27.6228 16.4642 26.6692 17.3926 25.4161C18.321 24.1628 18.8657 22.6644 18.9601 21.1043C18.0113 21.8559 16.2211 22.7651 13.3401 22.3741Z" fill="#673AB7"/>
<path d="M15.0339 14.0395C14.63 14.9104 18.2303 15.8766 18.661 18.7688C18.8685 15.9218 15.5334 12.9629 15.0339 14.0395Z" fill="#2196F3"/>
<path d="M7.46644 17.6744C8.11549 17.404 8.4237 16.6555 8.15487 16.0026C7.88605 15.3497 7.14191 15.0396 6.49286 15.3101C5.84381 15.5805 5.5356 16.329 5.80443 16.982C6.07331 17.6348 6.81739 17.9448 7.46644 17.6744Z" fill="#673AB7"/>
<path d="M10.3548 14.1609C10.6584 13.8555 10.6584 13.3604 10.3548 13.055C10.0512 12.7496 9.55897 12.7496 9.25539 13.055C8.95182 13.3604 8.95182 13.8555 9.25539 14.1609C9.55897 14.4663 10.0512 14.4663 10.3548 14.1609Z" fill="#2196F3"/>
<path d="M13.1013 9.13295C14.2244 5.7958 13.4694 3.1296 11.1612 1.8633C9.58347 2.18602 8.64687 2.95424 8.12537 4.01473C11.2203 3.76275 13.1843 5.71131 13.1013 9.13295Z" fill="#2196F3"/>
<path d="M25.6984 6.2173C20.139 4.21029 16.6305 4.89845 16.0787 9.47144C19.2649 12.7782 22.4741 11.1955 25.6984 6.2173Z" fill="#2196F3"/>
<path d="M21.2766 4.40631C21.5344 3.29817 21.6682 1.98865 21.6882 0.498375C15.9227 1.78972 13.3225 4.25747 15.284 8.41935C15.3817 8.44293 15.4755 8.46208 15.5697 8.48174C16.0282 5.22511 18.0464 4.01924 21.2766 4.40631Z" fill="#2196F3"/>
</svg>
